<?xml version="1.0" encoding="utf-8"?>
<!-- Svg Vector Icons : http://www.onlinewebfonts.com/icon -->
<!DOCTYPE svg PUBLIC "-//W3C//DTD SVG 1.1//EN" "http://www.w3.org/Graphics/SVG/1.1/DTD/svg11.dtd">
<svg version="1.1" xmlns="http://www.w3.org/2000/svg" xmlns:xlink="http://www.w3.org/1999/xlink" x="0px" y="0px" viewBox="0 0 1000 1000" enable-background="new 0 0 1000 1000" xml:space="preserve">
<metadata> Svg Vector Icons : http://www.onlinewebfonts.com/icon </metadata>
<g><g transform="translate(0.000000,512.000000) scale(0.100000,-0.100000)"><path d="M4860,5002.2c-201.1-51.7-427.1-229.8-576.5-459.7c-46-68.9-524.8-976.8-1064.9-2020.6C2678.5,1478.2,1941.1,57.1,1581.1-638.2C48.9-3597.2,179.1-3331,127.4-3581.9c-74.7-358.2,3.8-655,229.8-881c124.5-124.5,262.4-203,467.3-268.1l143.6-44h4022c3784.5,0,4029.7,1.9,4146.5,34.5C9671-4595,9966-4173.7,9887.5-3666.1c-36.4,237.5-86.2,354.3-432.9,1026.6C7842,478.4,5825.2,4366.4,5762,4471.7c-116.8,201.1-300.7,383.1-463.5,463.5C5149.1,5008,4986.3,5032.9,4860,5002.2z M5074.5,3138.7c11.5-15.3,312.2-589.9,670.3-1279.4C6101,1169.8,6855.6-285.7,7422.5-1375.5c565-1089.8,1032.3-2009.1,1038.1-2041.6c7.6-47.9,0-67-42.1-99.6l-53.6-42.1H4999.8H1634.7l-53.6,42.1c-42.1,32.6-49.8,51.7-42.1,99.6c5.8,32.5,293,603.3,637.8,1266C2521.4-1486.6,3276-31,3854.5,1085.6c578.4,1116.6,1061,2039.7,1072.5,2053.1C4953.8,3171.3,5047.6,3171.3,5074.5,3138.7z"/><path d="M4860,1937.8c-180-45.9-331.3-172.4-413.7-344.7l-49.8-105.3V415.2V-657.3l53.6-109.2c195.4-398.4,741.2-459.7,1022.7-114.9c141.7,174.3,141.7,166.6,136,1336.9l-5.7,1032.3l-49.8,105.3C5428.8,1855.5,5128.1,2004.9,4860,1937.8z"/><path d="M4860-1739.4c-178.1-46-321.8-160.9-409.9-331.3c-44.1-84.3-51.7-124.5-53.6-262.4c0-139.8,7.7-178.1,53.6-272c181.9-371.5,683.7-457.7,976.8-164.7c136,136,176.2,237.5,174.3,436.7c0,137.9-7.7,178.1-51.7,262.4c-67,130.2-168.5,229.8-291.1,285.4C5145.3-1733.7,4967.2-1712.6,4860-1739.4z"/></g></g>
</svg>