<?xml version="1.0" encoding="utf-8"?>
<!-- Svg Vector Icons : http://www.onlinewebfonts.com/icon -->
<!DOCTYPE svg PUBLIC "-//W3C//DTD SVG 1.1//EN" "http://www.w3.org/Graphics/SVG/1.1/DTD/svg11.dtd">
<svg version="1.1" xmlns="http://www.w3.org/2000/svg" xmlns:xlink="http://www.w3.org/1999/xlink" x="0px" y="0px" viewBox="0 0 1000 1000" enable-background="new 0 0 1000 1000" xml:space="preserve">
<metadata> Svg Vector Icons : http://www.onlinewebfonts.com/icon </metadata>
<g><path d="M216.2,151.9v69.2H147v37.7h69.2v69.2h37.7v-69.2h69.2v-37.7h-69.2v-69.2H216.2z"/><path d="M137.6,781h494.3v37.7H137.6V781z"/><path d="M137.6,668.8h494.3v37.7H137.6V668.8z"/><path d="M137.6,556.7h494.3v37.7H137.6V556.7z"/><path d="M137.6,444.6H368v37.7H137.6V444.6z"/><path d="M701.3,907.7c0,18.9-15.4,34.3-34.3,34.3H82c-18.9,0-34.3-15.4-34.3-34.3V92.3C47.7,73.4,63.1,58,82,58h584.9c18.9,0,34.3,15.4,34.3,34.3v65.8h37.7V92.3c0-39.7-32.3-72-72-72H82c-39.7,0-72,32.3-72,72v815.3c0,39.7,32.3,72,72,72h584.9c39.7,0,72-32.3,72-72V519.4h-37.7V907.7z"/><path d="M973.7,139c-15.5-21.4-39.3-34.2-63.5-34.2c-13.6,0-26.3,4.1-36.9,11.8L591,321.7c-15.2,11-24.4,28.1-25.9,48.2c-1.4,18.8,4.3,38.1,16.1,54.3c15.5,21.4,39.3,34.2,63.5,34.2c13.6,0,26.3-4.1,36.9-11.8L964,241.4c15.2-11,24.4-28.1,25.8-48.2C991.2,174.5,985.5,155.2,973.7,139z M941.8,211L659.5,416c-4.2,3-9.2,4.6-14.8,4.6c-12,0-24.7-7.1-33-18.6c-6.5-9-9.7-19.4-9-29.4c0.6-8.7,4.3-16,10.4-20.4l282.3-205.1c4.2-3,9.2-4.6,14.8-4.6c12,0,24.7,7.1,33,18.6c6.5,9,9.7,19.4,9,29.4C951.6,199.3,947.9,206.5,941.8,211z"/><path d="M580.3,474.1c-1.8-0.7-43-16.8-44.7-61.3l-2.6-68.8l-91.6,181.8l205.2-26.6L580.3,474.1z M503.1,482l10.5-20.7c3.9,6.7,8.5,12.6,13.2,17.7L503.1,482z"/></g>
</svg>