<?xml version="1.0" encoding="iso-8859-1"?>
<!-- Generator: Adobe Illustrator 19.0.0, SVG Export Plug-In . SVG Version: 6.00 Build 0)  -->
<svg version="1.1" id="Layer_1" xmlns="http://www.w3.org/2000/svg" xmlns:xlink="http://www.w3.org/1999/xlink" x="0px" y="0px"
	 viewBox="0 0 472.615 472.615" style="enable-background:new 0 0 472.615 472.615;" xml:space="preserve">
<g>
	<g>
		<path d="M395.039,184.811C393.661,82.609,309.279,0,205.796,0C101.427,0,16.553,83.987,16.553,186.389
			c-0.197,2.657-5.809,66.264,39.582,130.854c19.397,27.765,32.098,54.351,38.498,81.231c5.022,20.874,7.582,42.534,7.582,64.295
			v9.846h219.274V384h78.769v-88.615h56.123L395.039,184.811z M287.618,269.785c-22.351,22.843-52.283,35.446-84.283,35.446
			s-61.932-12.603-84.283-35.446c-21.858-22.252-33.871-51.594-33.871-82.708c0-31.212,12.012-60.554,33.871-82.708
			c22.351-22.844,52.283-35.446,84.283-35.446s61.932,12.602,84.283,35.446c21.858,22.154,33.871,51.495,33.871,82.708
			C321.488,218.191,309.476,247.532,287.618,269.785z"/>
	</g>
</g>
<g>
	<g>
		<path d="M240.978,110.747c-13.62-11.231-31.543-15.75-49.124-12.308c-23.068,4.461-41.582,22.961-46.067,46.048l19.327,3.749
			c2.971-15.269,15.221-27.519,30.481-30.471c12.019-2.308,23.658,0.587,32.851,8.173c9.072,7.48,14.274,18.509,14.274,30.249
			c0,12.981-6.423,25.106-17.173,32.423c-19.952,13.587-31.866,35.5-31.866,58.645h19.692c0-16.615,8.692-32.452,23.251-42.366
			c16.149-10.99,25.788-29.192,25.788-48.702C262.411,138.544,254.598,121.987,240.978,110.747z"/>
	</g>
</g>
<g>
	<g>
		<rect x="193.487" y="265.817" width="19.692" height="19.692"/>
	</g>
</g>
<g>
</g>
<g>
</g>
<g>
</g>
<g>
</g>
<g>
</g>
<g>
</g>
<g>
</g>
<g>
</g>
<g>
</g>
<g>
</g>
<g>
</g>
<g>
</g>
<g>
</g>
<g>
</g>
<g>
</g>
</svg>
